<svg fill="#6c6e6e" xmlns="http://www.w3.org/2000/svg" data-name="Layer 2" viewBox="0 0 35 35"><path d="M5.42 34.44a1.25 1.25 0 0 1-1.25-1.25V1.81a1.25 1.25 0 0 1 2.5 0v31.38a1.25 1.25 0 0 1-1.25 1.25Z"/><path d="M9.34 27.41H1.5a1.25 1.25 0 0 1 0-2.5h7.84a1.25 1.25 0 0 1 0 2.5zm20.24 7.03a1.25 1.25 0 0 1-1.25-1.25V1.81a1.25 1.25 0 1 1 2.5 0v31.38a1.25 1.25 0 0 1-1.25 1.25z"/><path d="M33.5 27.41h-7.84a1.25 1.25 0 0 1 0-2.5h7.84a1.25 1.25 0 0 1 0 2.5zm-16 7.03a1.25 1.25 0 0 1-1.25-1.25V1.81a1.25 1.25 0 1 1 2.5 0v31.38a1.25 1.25 0 0 1-1.25 1.25z"/><path d="M21.42 10.09h-7.84a1.25 1.25 0 0 1 0-2.5h7.84a1.25 1.25 0 0 1 0 2.5Z"/></svg>