<svg xmlns="http://www.w3.org/2000/svg" xmlns:xlink="http://www.w3.org/1999/xlink" viewBox="0,0,256,256" width="32px" height="32px" fill-rule="nonzero"><g fill="#fc6e20" fill-rule="nonzero" stroke="none" stroke-width="1" stroke-linecap="butt" stroke-linejoin="miter" stroke-miterlimit="10" stroke-dasharray="" stroke-dashoffset="0" font-family="none" font-weight="none" font-size="none" text-anchor="none" style="mix-blend-mode: normal"><g transform="scale(8,8)"><path d="M13.59375,4l-0.3125,0.28125l-0.71875,0.71875h-6.5625v2h1v18c0,1.64453 1.35547,3 3,3h12c1.64453,0 3,-1.35547 3,-3v-18h1v-2h-6.5625l-0.71875,-0.71875l-0.3125,-0.28125zM14.4375,6h3.125l0.71875,0.71875l0.3125,0.28125h4.40625v18c0,0.55469 -0.44531,1 -1,1h-12c-0.55469,0 -1,-0.44531 -1,-1v-18h4.40625l0.3125,-0.28125zM11,11v11h2v-11zM15,11v11h2v-11zM19,11v11h2v-11z"></path></g></g></svg>